<svg xmlns="http://www.w3.org/2000/svg" viewBox="0 0 1200 750"><defs><linearGradient id="g" x1="0" y1="0" x2="1" y2="1"><stop stop-color="#0f172a"/><stop offset="1" stop-color="#172554"/></linearGradient><linearGradient id="a"><stop stop-color="#2563eb"/><stop offset="1" stop-color="#06b6d4"/></linearGradient></defs><rect width="1200" height="750" fill="url(#g)"/><g opacity=".12" stroke="#cbd5e1"><path d="M0 100h1200M0 200h1200M0 300h1200M0 400h1200M0 500h1200M0 600h1200M0 700h1200"/><path d="M100 0v750M250 0v750M400 0v750M550 0v750M700 0v750M850 0v750M1000 0v750M1150 0v750"/></g><circle cx="940" cy="180" r="180" fill="#2563eb" opacity=".25"/><rect x="110" y="120" width="670" height="510" rx="32" fill="#fff" opacity=".97"/><rect x="155" y="170" width="120" height="16" rx="8" fill="url(#a)"/><rect x="155" y="220" width="510" height="40" rx="12" fill="#0f172a"/><rect x="155" y="278" width="390" height="20" rx="10" fill="#64748b" opacity=".55"/><rect x="155" y="345" width="575" height="12" rx="6" fill="#cbd5e1"/><rect x="155" y="375" width="525" height="12" rx="6" fill="#cbd5e1"/><rect x="155" y="405" width="550" height="12" rx="6" fill="#cbd5e1"/><rect x="155" y="470" width="250" height="100" rx="20" fill="#f1f5f9"/><rect x="430" y="470" width="300" height="100" rx="20" fill="url(#a)" opacity=".95"/><text x="860" y="520" font-family="Arial" font-weight="700" font-size="40" fill="#fff" transform="rotate(-8 860 520)">NEXT.JS</text></svg>