<svg xmlns="http://www.w3.org/2000/svg" viewBox="0 0 800 1000"><defs><linearGradient id="bg" x1="0" y1="0" x2="1" y2="1"><stop stop-color="#111c34"/><stop offset=".55" stop-color="#0f172a"/><stop offset="1" stop-color="#102a44"/></linearGradient><radialGradient id="g"><stop stop-color="#2563eb" stop-opacity=".55"/><stop offset="1" stop-color="#2563eb" stop-opacity="0"/></radialGradient></defs><rect width="800" height="1000" fill="url(#bg)"/><circle cx="640" cy="180" r="290" fill="url(#g)"/><g opacity=".18" stroke="#94a3b8"><path d="M0 150h800M0 300h800M0 450h800M0 600h800M0 750h800M0 900h800"/><path d="M100 0v1000M250 0v1000M400 0v1000M550 0v1000M700 0v1000"/></g><circle cx="400" cy="360" r="130" fill="#334155"/><path d="M212 845c28-211 99-326 188-326s160 115 188 326" fill="#334155"/><path d="M298 620c50 56 154 57 204 0l38 225H260z" fill="#1e293b"/><circle cx="400" cy="360" r="126" fill="none" stroke="#06b6d4" stroke-opacity=".45" stroke-width="3"/><rect x="262" y="158" width="276" height="52" rx="26" fill="#0f172a" stroke="#ffffff" stroke-opacity=".14"/><text x="400" y="191" text-anchor="middle" font-family="Arial, sans-serif" font-size="20" font-weight="700" fill="#cbd5e1">REPLACE WITH PROFESSIONAL PORTRAIT</text><text x="400" y="915" text-anchor="middle" font-family="Arial, sans-serif" font-size="24" font-weight="700" fill="#e2e8f0">Engineer Mumtaz Ali</text><text x="400" y="950" text-anchor="middle" font-family="Arial, sans-serif" font-size="16" fill="#94a3b8">Portrait placeholder · optimized SVG</text></svg>