<svg xmlns="http://www.w3.org/2000/svg" viewBox="0 0 1200 750"><defs><linearGradient id="bg" x1="0" y1="0" x2="1" y2="1"><stop stop-color="#eaf2ff"/><stop offset="1" stop-color="#f8fafc"/></linearGradient><linearGradient id="a" x1="0" y1="0" x2="1" y2="1"><stop stop-color="#2563eb"/><stop offset="1" stop-color="#06b6d4"/></linearGradient><filter id="s"><feDropShadow dx="0" dy="25" stdDeviation="30" flood-color="#0f172a" flood-opacity=".18"/></filter></defs><rect width="1200" height="750" fill="url(#bg)"/><circle cx="1040" cy="100" r="210" fill="#2563eb" opacity=".08"/><circle cx="90" cy="690" r="260" fill="#06b6d4" opacity=".06"/><g filter="url(#s)"><rect x="110" y="85" width="980" height="580" rx="28" fill="#fff"/><rect x="110" y="85" width="980" height="64" rx="28" fill="#0f172a"/><circle cx="153" cy="117" r="7" fill="#f87171"/><circle cx="178" cy="117" r="7" fill="#fbbf24"/><circle cx="203" cy="117" r="7" fill="#34d399"/><rect x="250" y="106" width="330" height="22" rx="11" fill="#fff" opacity=".1"/><rect x="145" y="185" width="230" height="430" rx="20" fill="#f8fafc"/><rect x="405" y="185" width="650" height="120" rx="22" fill="url(#a)"/><rect x="435" y="215" width="260" height="22" rx="11" fill="#fff" opacity=".92"/><rect x="435" y="255" width="410" height="12" rx="6" fill="#fff" opacity=".45"/><rect x="405" y="335" width="205" height="130" rx="20" fill="#f1f5f9"/><rect x="628" y="335" width="205" height="130" rx="20" fill="#f1f5f9"/><rect x="850" y="335" width="205" height="130" rx="20" fill="#f1f5f9"/><rect x="405" y="495" width="430" height="120" rx="20" fill="#f8fafc"/><rect x="850" y="495" width="205" height="120" rx="20" fill="#0f172a"/></g><text x="155" y="225" font-family="Arial" font-weight="700" font-size="18" fill="#0f172a">Portfolio</text><text x="155" y="255" font-family="Arial" font-size="13" fill="#64748b">Content and presentation</text></svg>